# xmcd CD database file
#
# Track frame offsets:
#	150
#	11933
#	28205
#	44577
#	58983
#	74930
#	93203
#	112430
#	126710
#	140120
#	157698
#	171438
#
# Disc length: 2544 seconds
#
# Revision: 1
# Processed by: cddbd v1.4PL0 Copyright (c) Steve Scherf et al.
# Submitted via: CDex 1.50Beta7
#
DISCID=c809ee0c
DTITLE=Nockalm Quintett - Gefühle einer Zweisamkeit Folge 3
DYEAR=1996
DGENRE=Schlager
TTITLE0=Schuld sind deine himmelblaue Augen
TTITLE1=Spiel nie mit dem Feuer
TTITLE2=Geh niemals fort
TTITLE3=Gib mir a Busserl
TTITLE4=Weine nicht um ihn
TTITLE5=Guten Abend, sage ich zu dir
TTITLE6=Wir gehen spazieren hier am Strand
TTITLE7=Nimm I Di in meine Arm
TTITLE8=Schönes Mädchen
TTITLE9=Drei Finger auf Herz
TTITLE10=Aus deinem Herzen blühen tausend Rosen
TTITLE11=Alles ist vorbei
EXTD=YEAR: 1996
EXTT0=
EXTT1=
EXTT2=
EXTT3=
EXTT4=
EXTT5=
EXTT6=
EXTT7=
EXTT8=
EXTT9=
EXTT10=
EXTT11=
PLAYORDER=
